<?xml version="1.0" standalone="no"?>
<!DOCTYPE svg PUBLIC "-//W3C//DTD SVG 20010904//EN"
 "http://www.w3.org/TR/2001/REC-SVG-20010904/DTD/svg10.dtd">
<svg version="1.0" xmlns="http://www.w3.org/2000/svg"
 width="113.000000pt" height="122.000000pt" viewBox="0 0 113.000000 122.000000"
 preserveAspectRatio="xMidYMid meet">

<g transform="translate(0.000000,122.000000) scale(0.100000,-0.100000)"
fill="#000000" stroke="none">
<path d="M463 1168 l-53 -29 0 -70 0 -69 -27 6 c-16 3 -33 7 -40 9 -6 2 -47
-17 -90 -43 l-78 -47 -3 -307 -2 -308 -61 0 c-37 0 -59 -4 -57 -10 5 -16 1018
-19 1018 -2 0 8 -19 12 -60 12 l-60 0 0 309 0 309 -76 45 c-67 39 -80 43 -115
37 l-39 -7 0 67 0 67 -59 32 c-76 40 -126 40 -198 -1z m87 5 c0 -9 -95 -63
-111 -63 -20 0 3 20 49 45 51 26 62 29 62 18z m91 -20 l49 -26 0 -409 0 -408
-60 0 -60 0 0 435 c0 313 3 435 11 435 6 0 33 -12 60 -27z m-91 -31 c0 -12
-19 -27 -55 -45 -64 -31 -65 -31 -65 -14 0 9 50 42 118 76 1 0 2 -7 2 -17z m0
-59 c0 -12 -18 -26 -53 -41 -58 -25 -67 -26 -67 -12 0 7 99 66 118 70 1 0 2
-8 2 -17z m0 -59 c0 -9 -22 -25 -55 -40 -65 -28 -65 -28 -65 -10 0 7 26 25 58
39 68 32 62 31 62 11z m-162 -20 l22 -6 0 -334 0 -334 -35 0 -35 0 0 340 c0
361 -2 347 48 334z m402 -334 l0 -340 -35 0 -35 0 0 334 c0 364 -3 341 53 345
16 1 17 -21 17 -339z m-470 -5 l0 -335 -60 0 -60 0 0 303 0 302 53 32 c28 17
55 32 60 32 4 1 7 -150 7 -334z m555 300 l55 -36 0 -299 0 -300 -60 0 -60 0 0
335 c0 184 2 335 5 335 2 0 29 -16 60 -35z m-325 0 c0 -14 -47 -39 -97 -51
-44 -11 -24 17 30 41 62 29 67 29 67 10z m-2 -61 c-2 -9 -27 -24 -58 -35 -65
-23 -60 -22 -60 -5 0 8 23 23 53 35 64 25 69 25 65 5z m2 -58 c0 -9 -21 -21
-54 -30 -65 -19 -66 -19 -66 -3 0 8 21 21 48 29 61 21 72 21 72 4z m0 -55 c0
-14 -11 -22 -44 -30 -24 -6 -51 -14 -61 -17 -13 -5 -16 -2 -13 12 2 12 21 24
58 35 30 9 56 17 58 18 1 1 2 -7 2 -18z m0 -60 c0 -14 -10 -21 -37 -26 -21 -3
-48 -9 -60 -12 -16 -4 -23 -1 -23 10 0 10 20 20 58 30 31 8 58 15 60 16 1 1 2
-7 2 -18z m0 -60 c0 -18 -39 -31 -98 -31 -41 0 -18 24 34 37 66 15 64 15 64
-6z m0 -55 c0 -20 -6 -23 -67 -31 -44 -6 -53 -4 -53 8 0 10 15 19 43 25 62 14
77 14 77 -2z m0 -60 c0 -18 -22 -26 -77 -26 -81 0 -36 35 50 39 17 1 27 -4 27
-13z m0 -60 c0 -12 -58 -26 -106 -26 -20 0 -17 28 4 33 41 11 102 7 102 -7z
m0 -56 c0 -18 -7 -20 -60 -20 -46 0 -60 3 -60 15 0 10 16 15 58 18 31 2 58 4
60 5 1 1 2 -7 2 -18z m0 -60 c0 -18 -7 -20 -60 -20 -45 0 -60 3 -60 14 0 15
25 22 88 25 26 1 32 -3 32 -19z m-27 -47 c-18 -2 -48 -2 -65 0 -18 2 -4 4 32
4 36 0 50 -2 33 -4z"/>
<path d="M253 929 c-18 -12 -33 -27 -33 -35 0 -11 9 -8 37 9 35 22 54 47 36
47 -4 0 -23 -10 -40 -21z"/>
<path d="M256 857 c-33 -19 -49 -37 -31 -37 18 1 75 36 75 47 0 16 2 17 -44
-10z"/>
<path d="M242 780 c-46 -28 -31 -45 19 -20 38 20 52 40 27 40 -7 0 -28 -9 -46
-20z"/>
<path d="M263 717 c-37 -14 -59 -32 -46 -40 14 -8 83 24 83 39 0 8 -1 14 -2
13 -2 0 -17 -6 -35 -12z"/>
<path d="M248 638 c-16 -5 -28 -16 -28 -23 0 -12 6 -12 37 -1 20 7 39 18 41
24 4 14 -13 14 -50 0z"/>
<path d="M258 570 c-36 -11 -49 -20 -43 -30 8 -13 85 11 85 26 0 16 -3 16 -42
4z"/>
<path d="M231 489 c-35 -14 -13 -29 28 -21 40 9 55 32 19 31 -12 0 -34 -5 -47
-10z"/>
<path d="M245 421 c-27 -6 -40 -27 -15 -25 6 1 24 2 41 3 19 0 29 6 27 13 -5
15 -16 17 -53 9z"/>
<path d="M215 340 c-3 -6 0 -13 9 -16 23 -9 69 0 74 14 5 15 -74 17 -83 2z"/>
<path d="M830 941 c0 -5 12 -18 28 -29 46 -32 52 -34 52 -19 0 8 -16 24 -36
36 -40 24 -44 25 -44 12z"/>
<path d="M830 865 c0 -8 18 -24 40 -35 33 -17 40 -18 40 -5 0 8 -18 24 -40 35
-33 17 -40 18 -40 5z"/>
<path d="M830 788 c0 -7 18 -21 40 -30 33 -14 40 -14 40 -2 0 7 -16 21 -36 29
-44 18 -44 18 -44 3z"/>
<path d="M830 716 c0 -16 73 -49 79 -34 4 12 1 15 -42 33 -31 13 -37 13 -37 1z"/>
<path d="M830 637 c0 -7 18 -18 40 -24 50 -13 57 9 9 26 -41 14 -49 14 -49 -2z"/>
<path d="M830 565 c0 -8 8 -16 18 -19 9 -2 27 -7 40 -11 15 -4 22 -2 22 8 0 9
-16 19 -40 25 -32 8 -40 7 -40 -3z"/>
<path d="M830 485 c0 -9 9 -15 24 -15 13 0 31 -3 40 -6 10 -4 16 -1 16 9 0 14
-28 27 -62 27 -10 0 -18 -7 -18 -15z"/>
<path d="M830 416 c0 -10 9 -16 24 -16 13 0 31 -3 40 -6 11 -4 16 -1 16 10 0
10 -9 16 -24 16 -13 0 -31 3 -40 6 -11 4 -16 1 -16 -10z"/>
<path d="M830 335 c0 -11 11 -15 40 -15 29 0 40 4 40 15 0 11 -11 15 -40 15
-29 0 -40 -4 -40 -15z"/>
<path d="M0 174 c0 -34 4 -53 10 -49 6 3 10 15 10 25 0 26 26 16 34 -13 3 -12
8 -18 11 -15 4 3 1 16 -5 28 -9 16 -9 25 1 36 16 19 -5 44 -37 44 -22 0 -24
-4 -24 -56z m48 23 c2 -10 -3 -17 -12 -17 -10 0 -16 9 -16 21 0 24 23 21 28
-4z"/>
<path d="M120 175 l0 -55 33 1 c30 2 30 2 5 6 -36 5 -40 43 -5 44 l22 0 -22 9
c-13 5 -23 14 -23 20 0 6 10 15 23 20 21 8 21 9 -5 9 -27 1 -28 -1 -28 -54z"/>
<path d="M246 198 c-7 -18 -17 -44 -20 -58 -6 -23 -6 -23 7 -7 18 22 57 23 57
0 0 -9 3 -13 6 -10 8 8 -15 95 -28 103 -4 3 -15 -10 -22 -28z m23 -27 c-15 -5
-22 6 -14 19 6 9 10 9 16 -1 5 -8 4 -15 -2 -18z"/>
<path d="M362 178 c-2 -57 -2 -58 26 -57 22 1 23 2 5 6 -19 4 -23 12 -26 56
l-3 52 -2 -57z"/>
<path d="M530 175 l0 -55 33 1 c30 2 30 2 5 6 -36 5 -40 43 -5 44 l22 0 -22 9
c-13 5 -23 14 -23 20 0 6 10 15 23 20 21 8 21 9 -5 9 -27 1 -28 -1 -28 -54z"/>
<path d="M639 214 c-12 -14 -10 -19 14 -38 33 -26 34 -43 5 -49 -22 -4 -22 -4
-2 -6 12 0 28 6 35 15 12 14 10 19 -14 38 -33 26 -34 43 -4 49 21 4 21 4 1 6
-12 0 -28 -6 -35 -15z"/>
<path d="M753 218 c9 -8 18 -32 20 -58 l4 -45 1 52 c2 40 6 53 20 56 9 3 -1 5
-22 6 -34 1 -37 -1 -23 -11z"/>
<path d="M861 189 c-7 -23 -15 -48 -18 -58 -4 -14 -3 -14 10 2 8 9 21 17 30
17 9 0 21 -8 27 -17 9 -15 10 -13 6 12 -7 42 -24 85 -34 85 -5 0 -14 -18 -21
-41z m28 -18 c-15 -5 -22 6 -14 19 6 9 10 9 16 -1 5 -8 4 -15 -2 -18z"/>
<path d="M963 223 c13 -3 17 -15 17 -54 0 -31 4 -48 10 -44 6 3 10 26 10 50 0
33 4 45 18 48 9 3 -3 5 -28 5 -25 0 -37 -2 -27 -5z"/>
<path d="M1074 216 c-3 -8 -4 -31 -2 -52 3 -35 6 -39 33 -41 20 -1 23 0 8 4
-14 2 -23 12 -23 23 0 11 9 20 23 23 l22 4 -22 2 c-16 1 -23 7 -23 20 0 12 8
21 23 24 19 4 18 4 -6 6 -15 0 -30 -5 -33 -13z"/>
<path d="M150 55 c-7 -9 -11 -17 -9 -20 3 -2 10 5 17 15 14 24 10 26 -8 5z"/>
<path d="M321 54 c-1 -27 25 -27 27 0 1 15 -1 17 -7 7 -7 -11 -9 -11 -14 0 -3
9 -6 6 -6 -7z"/>
<path d="M410 65 c0 -5 5 -17 10 -25 5 -8 10 -10 10 -5 0 6 -5 17 -10 25 -5 8
-10 11 -10 5z"/>
<path d="M463 35 c0 -22 2 -30 4 -17 2 12 2 30 0 40 -3 9 -5 -1 -4 -23z"/>
<path d="M504 59 c-3 -6 -2 -15 3 -20 5 -5 9 -1 9 11 0 23 -2 24 -12 9z"/>
<path d="M536 57 c3 -10 9 -15 12 -12 3 3 0 11 -7 18 -10 9 -11 8 -5 -6z"/>
<path d="M573 55 c-3 -9 -3 -18 -1 -21 3 -3 8 4 11 16 6 23 -1 27 -10 5z"/>
<path d="M643 55 c-3 -9 -3 -18 -1 -21 3 -3 8 4 11 16 6 23 -1 27 -10 5z"/>
<path d="M700 60 c0 -5 5 -10 11 -10 5 0 7 5 4 10 -3 6 -8 10 -11 10 -2 0 -4
-4 -4 -10z"/>
<path d="M727 56 c-4 -10 -5 -21 -2 -24 9 -9 17 6 13 25 -3 17 -4 17 -11 -1z"/>
<path d="M790 51 c0 -25 6 -27 13 -6 4 8 2 17 -3 20 -6 4 -10 -3 -10 -14z"/>
<path d="M822 50 c0 -14 2 -19 5 -12 2 6 2 18 0 25 -3 6 -5 1 -5 -13z"/>
<path d="M863 35 c0 -22 2 -30 4 -17 2 12 2 30 0 40 -3 9 -5 -1 -4 -23z"/>
<path d="M911 54 c-1 -12 5 -21 14 -21 9 0 15 9 15 21 0 16 -2 18 -9 7 -7 -11
-9 -11 -14 0 -3 9 -6 6 -6 -7z"/>
<path d="M973 35 c0 -22 2 -30 4 -17 2 12 2 30 0 40 -3 9 -5 -1 -4 -23z"/>
</g>
</svg>
