<?xml version="1.0" standalone="no"?>
<!DOCTYPE svg PUBLIC "-//W3C//DTD SVG 20010904//EN"
 "http://www.w3.org/TR/2001/REC-SVG-20010904/DTD/svg10.dtd">
<svg version="1.0" xmlns="http://www.w3.org/2000/svg"
 width="113.000000pt" height="122.000000pt" viewBox="0 0 113.000000 122.000000"
 preserveAspectRatio="xMidYMid meet">

<g transform="translate(0.000000,122.000000) scale(0.100000,-0.100000)"
fill="#000000" stroke="none">
<path d="M521 1098 c0 -49 3 -88 7 -88 4 0 6 33 4 73 -5 107 -10 114 -11 15z"/>
<path d="M598 1003 c6 -2 18 -2 25 0 6 3 1 5 -13 5 -14 0 -19 -2 -12 -5z"/>
<path d="M670 988 c19 -5 41 -14 48 -20 9 -8 12 -84 12 -319 l0 -309 -209 0
c-129 0 -212 -4 -216 -10 -4 -7 72 -10 219 -10 l226 0 0 158 c0 88 -3 234 -7
327 l-6 167 -33 14 c-18 8 -41 14 -51 13 -10 0 -2 -5 17 -11z"/>
<path d="M370 938 c-40 -11 -72 -36 -64 -50 3 -5 13 -3 22 5 28 24 91 39 196
47 l101 7 -110 1 c-60 0 -126 -4 -145 -10z"/>
<path d="M638 933 c6 -2 18 -2 25 0 6 3 1 5 -13 5 -14 0 -19 -2 -12 -5z"/>
<path d="M366 876 c-47 -13 -70 -32 -59 -49 3 -4 13 -1 23 8 29 27 155 48 255
42 62 -3 78 -2 50 4 -61 12 -214 9 -269 -5z"/>
<path d="M383 820 c-49 -10 -83 -27 -83 -40 0 -14 12 -12 47 5 40 20 173 36
248 31 43 -4 51 -3 30 3 -39 11 -188 11 -242 1z"/>
<path d="M386 759 c-59 -9 -90 -24 -80 -40 3 -5 13 -5 23 1 36 19 115 30 219
32 85 1 98 3 62 9 -58 10 -149 9 -224 -2z"/>
<path d="M407 700 c-75 -7 -113 -23 -101 -42 4 -5 10 -5 17 1 20 16 126 31
231 32 91 2 96 3 46 9 -66 10 -91 9 -193 0z"/>
<path d="M411 640 c-51 -5 -98 -13 -104 -19 -18 -18 -1 -23 44 -11 24 7 100
15 169 19 69 5 103 9 75 10 -27 1 -59 3 -70 5 -11 2 -62 0 -114 -4z"/>
<path d="M332 572 c-13 -4 -23 -10 -23 -14 1 -11 5 -11 53 -3 23 4 94 11 157
15 l116 7 -140 1 c-77 0 -150 -3 -163 -6z"/>
<path d="M321 509 c-43 -17 -15 -20 100 -9 63 5 137 12 164 13 28 2 -15 4 -95
5 -80 0 -156 -4 -169 -9z"/>
<path d="M311 451 c-25 -16 4 -19 123 -11 65 5 124 6 130 4 7 -3 23 0 37 5 17
7 -18 10 -126 10 -82 0 -156 -3 -164 -8z"/>
<path d="M307 394 c-4 -4 -5 -10 -3 -13 7 -10 296 -1 296 10 0 10 -283 13
-293 3z"/>
<path d="M220 280 c0 -6 110 -10 311 -10 204 0 308 3 304 10 -4 6 -118 10
-311 10 -196 0 -304 -4 -304 -10z"/>
<path d="M21 148 c0 -42 2 -48 9 -30 12 28 24 28 37 0 9 -19 10 -15 9 27 -1
47 -3 50 -28 53 -28 3 -28 2 -27 -50z m45 31 c10 -17 -13 -36 -27 -22 -12 12
-4 33 11 33 5 0 12 -5 16 -11z"/>
<path d="M130 150 l0 -50 33 1 c23 1 26 3 10 6 -25 5 -32 33 -8 33 8 0 15 5
15 10 0 6 -7 10 -15 10 -24 0 -17 28 8 33 16 3 13 5 -10 6 l-33 1 0 -50z"/>
<path d="M248 150 c-9 -28 -12 -50 -7 -50 5 0 9 7 9 15 0 21 30 19 46 -2 8
-11 13 -13 14 -6 0 19 -31 93 -39 93 -4 0 -14 -22 -23 -50z m28 -7 c-11 -11
-19 6 -11 24 8 17 8 17 12 0 3 -10 2 -21 -1 -24z"/>
<path d="M360 152 l0 -52 33 1 c31 2 31 2 4 6 -26 4 -28 8 -26 43 2 22 0 42
-4 46 -4 4 -7 -16 -7 -44z"/>
<path d="M530 150 c0 -48 1 -50 28 -49 23 2 24 2 5 6 -13 2 -23 10 -23 18 0 7
10 16 23 20 l22 8 -22 4 c-13 2 -23 11 -23 18 0 7 10 16 23 18 19 4 18 4 -5 6
-27 1 -28 -1 -28 -49z"/>
<path d="M633 183 c-4 -10 2 -23 15 -34 28 -22 28 -39 0 -39 -16 0 -19 -3 -11
-11 8 -8 17 -8 32 0 28 16 27 39 -4 53 -31 14 -32 26 -2 38 l22 9 -23 0 c-12
1 -25 -6 -29 -16z"/>
<path d="M743 188 c9 -7 18 -31 20 -53 l4 -40 1 47 c2 35 6 48 20 51 9 3 -1 5
-22 6 -34 1 -37 -1 -23 -11z"/>
<path d="M850 175 c-5 -14 -12 -38 -16 -53 -4 -23 -3 -24 6 -9 14 21 39 22 46
2 4 -8 10 -15 14 -15 11 0 -18 88 -31 96 -5 3 -13 -7 -19 -21z m30 -27 c0 -5
-6 -8 -14 -8 -9 0 -12 7 -9 21 4 16 8 17 14 7 5 -7 9 -16 9 -20z"/>
<path d="M943 193 c13 -3 17 -15 17 -49 0 -24 5 -44 10 -44 6 0 10 20 10 44 0
34 4 46 18 49 9 3 -3 5 -28 5 -25 0 -37 -2 -27 -5z"/>
<path d="M1050 150 c0 -48 1 -50 28 -49 23 2 24 2 5 6 -28 5 -30 33 -3 33 11
0 20 5 20 10 0 6 -9 10 -20 10 -27 0 -25 28 3 33 19 4 18 4 -5 6 -27 1 -28 -1
-28 -49z"/>
<path d="M205 40 c-3 -6 1 -7 9 -4 11 4 16 0 16 -11 0 -12 -5 -15 -17 -10 -15
5 -16 4 -5 -6 16 -17 37 3 29 25 -7 18 -23 21 -32 6z"/>
<path d="M291 33 c-1 -27 -18 -31 -24 -6 -4 16 -5 16 -6 1 0 -9 4 -20 10 -24
15 -9 32 11 26 32 -4 16 -5 15 -6 -3z"/>
<path d="M410 43 c0 -7 5 -15 11 -19 8 -4 7 -9 -2 -15 -10 -6 -10 -9 -2 -9 19
0 22 14 7 35 -8 10 -14 14 -14 8z"/>
<path d="M504 35 c-7 -17 3 -35 19 -34 9 0 9 2 0 6 -7 2 -13 11 -13 18 0 7 6
16 13 18 9 4 9 6 -1 6 -7 1 -15 -6 -18 -14z"/>
<path d="M637 28 c-4 -12 -4 -24 -2 -27 3 -2 5 1 5 9 0 10 3 10 17 -1 15 -13
15 -12 3 11 -17 34 -17 34 -23 8z"/>
<path d="M692 25 c0 -17 2 -22 5 -12 2 9 2 23 0 30 -3 6 -5 -1 -5 -18z"/>
<path d="M810 39 c0 -6 -7 -9 -15 -5 -11 4 -15 -1 -15 -17 0 -18 2 -19 10 -7
9 13 11 13 20 0 8 -12 10 -9 10 13 0 15 -2 27 -5 27 -3 0 -5 -5 -5 -11z"/>
<path d="M840 25 c0 -17 5 -25 18 -25 10 0 13 3 6 8 -6 4 -10 15 -8 25 1 9 -2
17 -7 17 -5 0 -9 -11 -9 -25z"/>
<path d="M897 43 c-4 -3 -7 -16 -6 -27 0 -12 3 -15 6 -8 2 6 9 10 14 6 5 -3 9
0 9 5 0 6 -6 11 -12 11 -9 0 -8 4 2 10 8 5 10 10 4 10 -6 0 -14 -3 -17 -7z"/>
<path d="M157 19 c4 -13 8 -18 11 -10 2 7 -1 18 -6 23 -8 8 -9 4 -5 -13z"/>
<path d="M340 30 c-9 -6 -10 -10 -3 -10 6 0 15 5 18 10 8 12 4 12 -15 0z"/>
<path d="M460 20 c0 -11 4 -20 9 -20 5 0 7 9 4 20 -3 11 -7 20 -9 20 -2 0 -4
-9 -4 -20z"/>
<path d="M717 25 c-4 -8 -2 -17 3 -20 6 -4 10 3 10 14 0 25 -6 27 -13 6z"/>
<path d="M576 8 c7 -10 34 -10 34 0 0 4 -9 8 -19 8 -11 0 -17 -4 -15 -8z"/>
</g>
</svg>
