<?xml version="1.0" standalone="no"?>
<!DOCTYPE svg PUBLIC "-//W3C//DTD SVG 20010904//EN"
 "http://www.w3.org/TR/2001/REC-SVG-20010904/DTD/svg10.dtd">
<svg version="1.0" xmlns="http://www.w3.org/2000/svg"
 width="113.000000pt" height="122.000000pt" viewBox="0 0 113.000000 122.000000"
 preserveAspectRatio="xMidYMid meet">

<g transform="translate(0.000000,122.000000) scale(0.100000,-0.100000)"
fill="#000000" stroke="none">
<path d="M560 756 c0 -297 3 -456 10 -456 14 0 14 896 0 905 -7 4 -10 -148
-10 -449z"/>
<path d="M516 1093 c-3 -3 -6 -183 -6 -400 0 -343 2 -393 15 -393 13 0 15 50
15 394 0 217 -4 397 -9 400 -4 3 -11 3 -15 -1z"/>
<path d="M599 1096 c-9 -10 2 -796 11 -796 13 0 14 787 1 794 -4 3 -10 4 -12
2z"/>
<path d="M383 985 c-108 -54 -177 -140 -209 -260 -35 -130 9 -285 107 -381 53
-51 62 -35 11 20 -83 90 -123 213 -103 320 16 84 52 158 106 211 44 45 152
105 188 105 9 0 17 5 17 10 0 20 -49 9 -117 -25z"/>
<path d="M636 1012 c5 -5 35 -19 67 -32 81 -32 158 -105 199 -188 30 -61 33
-74 33 -162 0 -86 -3 -101 -31 -160 -17 -36 -47 -81 -67 -100 -40 -38 -45 -50
-23 -50 21 0 81 77 113 146 25 53 28 70 28 164 0 95 -3 111 -29 168 -38 82
-132 172 -211 201 -57 22 -97 28 -79 13z"/>
<path d="M430 570 c0 -173 4 -270 10 -270 6 0 10 97 10 270 0 173 -4 270 -10
270 -6 0 -10 -97 -10 -270z"/>
<path d="M470 570 c0 -233 2 -270 15 -270 13 0 15 37 15 270 0 233 -2 270 -15
270 -13 0 -15 -37 -15 -270z"/>
<path d="M640 838 c0 -2 -1 -123 -3 -271 -1 -208 1 -267 11 -267 9 0 12 61 12
270 0 173 -4 270 -10 270 -5 0 -10 -1 -10 -2z"/>
<path d="M680 570 c0 -173 4 -270 10 -270 6 0 10 97 10 270 0 173 -4 270 -10
270 -6 0 -10 -97 -10 -270z"/>
<path d="M350 470 c0 -107 4 -170 10 -170 6 0 10 63 10 170 0 107 -4 170 -10
170 -6 0 -10 -63 -10 -170z"/>
<path d="M390 470 c0 -107 4 -170 10 -170 6 0 10 63 10 170 0 107 -4 170 -10
170 -6 0 -10 -63 -10 -170z"/>
<path d="M720 470 c0 -107 4 -170 10 -170 6 0 10 63 10 170 0 107 -4 170 -10
170 -6 0 -10 -63 -10 -170z"/>
<path d="M760 470 c0 -107 4 -170 10 -170 6 0 10 63 10 170 0 107 -4 170 -10
170 -6 0 -10 -63 -10 -170z"/>
<path d="M300 270 c0 -6 95 -10 265 -10 170 0 265 4 265 10 0 6 -95 10 -265
10 -170 0 -265 -4 -265 -10z"/>
<path d="M644 195 c-18 -15 -18 -16 11 -40 31 -25 28 -38 -10 -48 -12 -3 -8
-5 10 -4 38 2 48 39 16 57 -27 14 -27 30 0 30 11 0 17 5 14 10 -8 14 -18 13
-41 -5z"/>
<path d="M31 148 c1 -29 4 -43 6 -30 6 28 29 29 36 0 4 -12 9 -19 12 -16 4 3
2 15 -4 26 -7 13 -7 22 1 30 17 17 1 42 -27 42 -24 0 -25 -3 -24 -52z m42 27
c1 -5 -6 -11 -15 -13 -11 -2 -18 3 -18 13 0 17 30 18 33 0z"/>
<path d="M140 150 c0 -48 1 -50 28 -49 23 2 24 2 5 6 -14 3 -23 12 -23 23 0
11 9 20 23 23 l22 4 -22 2 c-13 0 -23 7 -23 15 0 8 10 17 23 19 19 4 18 4 -5
6 -27 1 -28 -1 -28 -49z"/>
<path d="M260 175 c-5 -14 -12 -38 -16 -53 -4 -23 -3 -24 6 -9 13 21 50 23 50
2 0 -8 5 -15 11 -15 6 0 8 6 5 13 -2 6 -10 29 -17 50 -14 43 -26 47 -39 12z
m30 -21 c0 -8 -4 -14 -10 -14 -5 0 -10 9 -10 21 0 11 5 17 10 14 6 -3 10 -13
10 -21z"/>
<path d="M372 153 c-2 -52 -1 -53 26 -52 22 1 23 2 5 6 -18 4 -23 12 -26 51
l-3 47 -2 -52z"/>
<path d="M530 150 c0 -50 0 -50 33 -49 29 1 29 2 8 8 -33 9 -38 29 -10 39 l23
9 -22 5 c-29 8 -28 25 1 31 19 4 18 4 -5 6 -27 1 -28 -1 -28 -49z"/>
<path d="M742 193 c12 -3 18 -18 21 -51 l3 -47 2 47 c2 35 6 48 20 51 9 3 -1
5 -23 5 -22 0 -32 -2 -23 -5z"/>
<path d="M846 153 c-9 -25 -14 -49 -11 -51 2 -3 7 3 11 12 8 21 33 21 51 -1
13 -16 14 -16 9 9 -10 44 -25 78 -35 78 -5 0 -16 -21 -25 -47z m30 -10 c-11
-11 -19 6 -11 24 8 17 8 17 12 0 3 -10 2 -21 -1 -24z"/>
<path d="M952 193 c12 -3 18 -18 21 -51 l3 -47 2 47 c2 35 6 48 20 51 9 3 -1
5 -23 5 -22 0 -32 -2 -23 -5z"/>
<path d="M1060 150 c0 -48 1 -50 28 -49 23 2 24 2 5 6 -14 3 -23 12 -23 23 0
11 9 20 23 23 l22 4 -22 2 c-13 0 -23 7 -23 15 0 8 10 17 23 19 19 4 18 4 -5
6 -27 1 -28 -1 -28 -49z"/>
<path d="M158 23 c5 -21 7 -23 10 -9 2 10 0 22 -6 28 -6 6 -7 0 -4 -19z"/>
<path d="M205 39 c-4 -6 -5 -12 -2 -15 2 -3 7 2 10 11 7 17 1 20 -8 4z"/>
<path d="M270 31 c0 -11 4 -22 9 -25 4 -3 6 6 3 19 -5 30 -12 33 -12 6z"/>
<path d="M332 25 c0 -17 2 -22 5 -12 2 9 2 23 0 30 -3 6 -5 -1 -5 -18z"/>
<path d="M352 30 c0 -14 2 -19 5 -12 2 6 2 18 0 25 -3 6 -5 1 -5 -13z"/>
<path d="M541 31 c-1 -18 -5 -22 -18 -16 -15 5 -16 4 -5 -6 16 -17 36 2 29 27
-4 15 -5 14 -6 -5z"/>
<path d="M575 39 c-4 -6 -5 -12 -2 -15 2 -3 7 2 10 11 7 17 1 20 -8 4z"/>
<path d="M641 32 c-7 -14 -6 -18 10 -18 10 0 19 4 19 8 0 4 -5 8 -11 8 -5 0
-7 5 -4 10 3 6 4 10 1 10 -3 0 -10 -8 -15 -18z"/>
<path d="M690 28 c0 -19 2 -20 10 -8 13 19 13 30 0 30 -5 0 -10 -10 -10 -22z"/>
<path d="M850 25 c0 -14 4 -25 9 -25 4 0 6 11 3 25 -6 32 -12 32 -12 0z"/>
<path d="M901 34 c-1 -27 25 -27 27 0 1 15 -1 17 -7 7 -7 -11 -9 -11 -14 0 -3
9 -6 6 -6 -7z"/>
<path d="M951 28 c-1 -21 4 -28 17 -28 11 0 13 3 6 8 -7 4 -14 16 -17 27 -4
15 -5 14 -6 -7z"/>
<path d="M791 24 c0 -11 3 -14 6 -6 3 7 2 16 -1 19 -3 4 -6 -2 -5 -13z"/>
<path d="M426 13 c-6 -14 -5 -15 5 -6 7 7 10 15 7 18 -3 3 -9 -2 -12 -12z"/>
<path d="M596 15 c-3 -8 -1 -15 4 -15 6 0 10 7 10 15 0 8 -2 15 -4 15 -2 0 -6
-7 -10 -15z"/>
<path d="M721 14 c0 -11 3 -14 6 -6 3 7 2 16 -1 19 -3 4 -6 -2 -5 -13z"/>
<path d="M467 9 c7 -7 15 -10 18 -7 3 3 -2 9 -12 12 -14 6 -15 5 -6 -5z"/>
</g>
</svg>
