<?xml version="1.0" standalone="no"?>
<!DOCTYPE svg PUBLIC "-//W3C//DTD SVG 20010904//EN"
 "http://www.w3.org/TR/2001/REC-SVG-20010904/DTD/svg10.dtd">
<svg version="1.0" xmlns="http://www.w3.org/2000/svg"
 width="113.000000pt" height="122.000000pt" viewBox="0 0 113.000000 122.000000"
 preserveAspectRatio="xMidYMid meet">

<g transform="translate(0.000000,122.000000) scale(0.100000,-0.100000)"
fill="#000000" stroke="none">
<path d="M456 1152 c-28 -10 -52 -24 -54 -30 -5 -16 -2 -15 62 8 l54 21 80
-21 c89 -22 102 -24 102 -12 0 10 -98 39 -156 46 -24 3 -58 -1 -88 -12z"/>
<path d="M456 1111 c-28 -9 -52 -23 -54 -29 -5 -15 -5 -15 60 7 54 19 57 19
134 0 90 -21 104 -23 104 -10 0 8 -168 53 -188 50 -4 0 -29 -8 -56 -18z"/>
<path d="M458 1068 c-32 -11 -58 -24 -58 -29 0 -12 5 -12 66 8 50 15 59 15
131 0 89 -19 103 -20 103 -9 0 7 -44 19 -170 47 -8 2 -41 -6 -72 -17z"/>
<path d="M448 1023 c-27 -8 -48 -18 -48 -24 0 -12 4 -12 69 7 52 14 62 14 144
-4 64 -14 87 -16 87 -7 0 7 -34 19 -82 29 -97 19 -107 19 -170 -1z"/>
<path d="M785 993 c-46 -19 -50 -21 -43 -28 3 -3 24 2 48 10 38 13 48 13 93 0
89 -26 91 -11 3 19 -58 19 -51 19 -101 -1z"/>
<path d="M453 983 c-29 -9 -53 -19 -53 -24 0 -12 18 -11 73 6 43 13 57 13 137
-4 65 -13 90 -15 90 -7 0 7 -37 19 -88 29 -103 20 -92 20 -159 0z"/>
<path d="M781 956 c-19 -7 -37 -18 -39 -24 -2 -8 12 -6 42 5 43 16 50 16 106
1 71 -19 81 -7 13 16 -54 19 -75 19 -122 2z"/>
<path d="M458 943 c-57 -15 -84 -41 -30 -29 70 15 123 16 192 3 41 -8 77 -14
79 -12 11 11 -17 23 -81 34 -40 7 -80 14 -88 16 -8 1 -41 -4 -72 -12z"/>
<path d="M783 923 c-24 -8 -43 -19 -43 -24 0 -12 -2 -12 53 7 43 15 51 15 94
0 53 -18 63 -19 63 -8 0 7 -112 44 -122 41 -2 0 -22 -7 -45 -16z"/>
<path d="M181 904 c-47 -21 -31 -29 21 -12 35 12 50 12 83 2 47 -15 83 -18 69
-6 -13 12 -87 32 -115 31 -13 0 -39 -7 -58 -15z"/>
<path d="M443 897 c-24 -5 -43 -16 -43 -22 0 -10 12 -10 58 2 47 12 70 13 132
3 41 -6 83 -14 94 -17 12 -3 17 -1 14 8 -5 15 -118 38 -178 37 -19 0 -54 -5
-77 -11z"/>
<path d="M773 888 c-18 -6 -33 -15 -33 -19 0 -12 18 -10 60 5 28 10 43 10 80
-1 54 -16 89 -12 45 6 -43 18 -115 22 -152 9z"/>
<path d="M193 878 c-18 -6 -33 -15 -33 -20 0 -5 10 -6 23 -1 28 10 90 10 142
-1 51 -11 35 6 -21 22 -48 14 -67 14 -111 0z"/>
<path d="M448 857 c-30 -6 -48 -16 -48 -24 0 -9 7 -12 18 -9 88 25 103 26 189
12 82 -15 105 -15 90 0 -9 9 -145 33 -177 32 -14 0 -46 -5 -72 -11z"/>
<path d="M788 857 c-70 -23 -58 -37 14 -17 28 8 51 7 93 -4 30 -8 55 -10 55
-5 0 8 -43 22 -100 33 -14 2 -42 -1 -62 -7z"/>
<path d="M193 848 c-18 -6 -33 -15 -33 -20 0 -5 10 -6 23 -1 28 10 90 10 142
-1 51 -11 35 6 -21 22 -48 14 -67 14 -111 0z"/>
<path d="M193 818 c-18 -6 -33 -15 -33 -20 0 -5 10 -6 23 -1 28 10 91 10 140
-1 23 -5 37 -5 37 2 0 5 -26 14 -57 21 -64 13 -67 13 -110 -1z"/>
<path d="M456 816 c-27 -6 -51 -17 -54 -24 -4 -13 5 -12 83 8 18 4 68 1 119
-7 85 -13 115 -11 87 6 -7 5 -41 12 -75 16 -33 3 -72 8 -86 10 -14 2 -47 -2
-74 -9z"/>
<path d="M773 819 c-18 -5 -33 -14 -33 -19 0 -6 11 -7 28 -3 35 10 108 10 150
0 20 -6 32 -5 32 1 0 11 -86 33 -123 31 -12 0 -37 -5 -54 -10z"/>
<path d="M193 788 c-40 -13 -44 -32 -5 -21 34 10 86 9 135 -1 23 -5 37 -5 37
2 0 5 -26 14 -57 21 -64 13 -67 13 -110 -1z"/>
<path d="M783 788 c-24 -6 -43 -15 -43 -20 0 -6 13 -6 33 -2 41 11 81 10 136
0 28 -5 41 -5 37 2 -5 9 -28 15 -101 27 -11 1 -39 -2 -62 -7z"/>
<path d="M442 770 c-73 -17 -54 -34 22 -19 43 9 77 9 143 0 47 -7 88 -10 91
-7 24 25 -175 45 -256 26z"/>
<path d="M193 759 c-18 -5 -33 -14 -33 -19 0 -6 11 -7 28 -3 35 10 87 10 135
0 21 -5 37 -4 37 1 0 5 -26 14 -57 21 -64 13 -66 13 -110 0z"/>
<path d="M775 753 c-51 -13 -36 -24 25 -18 36 4 84 2 108 -3 41 -10 59 -1 25
13 -25 9 -134 15 -158 8z"/>
<path d="M193 729 c-18 -5 -33 -14 -33 -19 0 -6 11 -7 28 -3 35 10 87 10 135
0 21 -5 37 -4 37 1 0 5 -26 14 -57 21 -64 13 -66 13 -110 0z"/>
<path d="M447 730 c-20 -4 -40 -10 -44 -13 -14 -15 6 -17 58 -7 38 8 80 7 142
-1 79 -10 109 -8 96 6 -8 7 -140 25 -179 24 -19 -1 -52 -5 -73 -9z"/>
<path d="M783 718 c-24 -5 -43 -13 -43 -18 0 -5 14 -6 33 -2 42 9 92 9 140 -1
21 -5 37 -4 37 1 0 8 -102 34 -119 31 -3 -1 -25 -5 -48 -11z"/>
<path d="M225 705 c-5 -2 -22 -6 -37 -9 -16 -4 -28 -10 -28 -15 0 -5 19 -5 43
1 38 8 72 6 135 -9 12 -3 22 -1 22 5 0 5 -26 14 -57 21 -58 11 -61 12 -78 6z"/>
<path d="M457 690 c-27 -5 -52 -11 -55 -14 -13 -14 9 -16 64 -8 33 5 84 6 114
2 75 -11 120 -12 120 -1 0 7 -160 33 -186 30 -5 -1 -31 -5 -57 -9z"/>
<path d="M768 683 c-16 -2 -28 -9 -28 -15 0 -6 15 -7 43 -2 52 9 50 9 115 0
31 -5 52 -4 52 2 0 17 -109 26 -182 15z"/>
<path d="M225 675 c-5 -2 -22 -6 -37 -9 -16 -4 -28 -10 -28 -15 0 -5 19 -5 42
1 38 8 93 5 141 -8 9 -3 17 -1 17 4 0 12 -114 34 -135 27z"/>
<path d="M505 655 c-5 -2 -31 -6 -57 -10 -89 -12 -49 -20 102 -21 83 0 150 3
150 7 0 4 -35 10 -77 14 -43 4 -85 8 -93 10 -8 2 -19 2 -25 0z"/>
<path d="M782 650 c-55 -13 -50 -23 8 -17 30 4 79 3 108 -2 67 -10 68 4 2 18
-57 12 -71 12 -118 1z"/>
<path d="M225 645 c-5 -2 -22 -6 -37 -9 -16 -4 -28 -10 -28 -15 0 -5 19 -5 42
1 38 8 93 5 141 -8 9 -3 17 -1 17 4 0 12 -114 34 -135 27z"/>
<path d="M225 612 c-48 -7 -65 -13 -65 -21 0 -5 17 -5 40 0 24 6 64 6 98 0 55
-9 72 -7 60 5 -8 8 -109 20 -133 16z"/>
<path d="M763 613 c-52 -10 -16 -18 82 -18 58 0 105 3 105 6 0 15 -129 23
-187 12z"/>
<path d="M433 603 c-76 -10 -23 -19 117 -20 83 0 150 2 150 7 0 15 -180 24
-267 13z"/>
<path d="M210 582 c-19 -2 -39 -8 -45 -14 -7 -7 5 -9 40 -5 28 3 73 2 100 -3
49 -8 64 -6 53 6 -9 9 -109 19 -148 16z"/>
<path d="M778 583 c-72 -8 -37 -18 67 -19 58 0 105 3 105 8 0 4 -11 8 -24 8
-13 0 -43 2 -67 4 -24 2 -61 2 -81 -1z"/>
<path d="M438 563 c-21 -2 -38 -9 -38 -15 0 -7 24 -9 73 -5 39 3 107 3 150 -1
55 -5 77 -4 77 4 0 17 -158 28 -262 17z"/>
<path d="M203 550 c-76 -11 -56 -18 52 -18 59 0 104 2 102 5 -10 10 -114 18
-154 13z"/>
<path d="M753 543 c-29 -11 -10 -19 35 -13 26 3 73 3 105 0 57 -6 77 2 35 14
-27 7 -158 7 -175 -1z"/>
<path d="M453 523 c-32 -2 -53 -9 -53 -16 0 -9 40 -12 150 -12 113 0 150 3
150 13 0 8 -19 12 -62 12 -35 0 -79 2 -98 4 -19 2 -59 1 -87 -1z"/>
<path d="M166 511 c-3 -5 40 -9 96 -9 67 -1 97 2 88 8 -19 12 -177 13 -184 1z"/>
<path d="M773 513 c-68 -9 -29 -18 72 -18 113 0 137 8 53 19 -54 6 -68 6 -125
-1z"/>
<path d="M160 481 c0 -6 45 -10 103 -10 68 0 97 3 87 9 -19 13 -190 13 -190 1z"/>
<path d="M400 468 c0 -10 37 -13 150 -13 83 0 150 3 150 6 0 15 -38 19 -166
19 -101 0 -134 -3 -134 -12z"/>
<path d="M740 471 c0 -5 47 -9 105 -9 59 -1 105 3 105 9 0 5 -46 9 -105 9 -58
0 -105 -4 -105 -9z"/>
<path d="M160 451 c0 -6 45 -10 100 -10 63 0 99 3 95 9 -8 13 -195 13 -195 1z"/>
<path d="M758 443 c-43 -11 -10 -18 87 -18 105 0 133 7 74 19 -35 7 -134 6
-161 -1z"/>
<path d="M413 433 c-34 -13 0 -18 137 -19 146 0 189 7 113 20 -45 7 -232 7
-250 -1z"/>
<path d="M160 421 c0 -6 45 -10 100 -10 63 0 99 3 95 9 -8 13 -195 13 -195 1z"/>
<path d="M788 412 c-90 -6 -48 -21 57 -21 58 0 105 4 105 9 0 9 -92 16 -162
12z"/>
<path d="M160 390 c0 -6 40 -10 100 -10 60 0 100 4 100 10 0 6 -40 10 -100 10
-60 0 -100 -4 -100 -10z"/>
<path d="M438 393 c-21 -2 -38 -8 -38 -14 0 -5 63 -9 150 -9 83 0 150 4 150 9
0 4 -37 11 -82 14 -84 7 -112 7 -180 0z"/>
<path d="M740 370 c0 -6 42 -10 105 -10 63 0 105 4 105 10 0 6 -42 10 -105 10
-63 0 -105 -4 -105 -10z"/>
<path d="M160 360 c0 -6 40 -10 100 -10 60 0 100 4 100 10 0 6 -40 10 -100 10
-60 0 -100 -4 -100 -10z"/>
<path d="M463 352 c-35 -2 -63 -7 -63 -12 0 -6 62 -10 150 -10 86 0 150 4 150
9 0 10 -138 18 -237 13z"/>
<path d="M160 330 c0 -6 40 -10 100 -10 60 0 100 4 100 10 0 6 -40 10 -100 10
-60 0 -100 -4 -100 -10z"/>
<path d="M740 333 c0 -5 47 -8 105 -8 58 0 105 3 105 7 0 4 -47 8 -105 8 -58
0 -105 -3 -105 -7z"/>
<path d="M20 300 c0 -7 190 -10 550 -10 360 0 550 3 550 10 0 7 -190 10 -550
10 -360 0 -550 -3 -550 -10z"/>
<path d="M632 228 c-19 -19 -14 -34 14 -53 27 -17 24 -30 -11 -38 -15 -3 -13
-5 8 -6 40 -2 47 27 14 53 -32 26 -34 36 -6 36 11 0 17 5 14 10 -8 13 -18 13
-33 -2z"/>
<path d="M11 178 c1 -29 4 -43 6 -30 2 12 10 22 17 22 7 0 18 -10 24 -22 9
-19 10 -15 9 27 -2 47 -4 50 -29 53 -28 3 -28 3 -27 -50z m47 25 c2 -8 -5 -13
-17 -13 -12 0 -21 6 -21 16 0 18 31 15 38 -3z"/>
<path d="M120 180 l0 -50 33 1 c21 1 25 3 10 6 -31 6 -37 32 -10 43 17 7 18 9
5 9 -10 1 -18 7 -18 15 0 8 8 17 18 19 10 3 6 5 -10 6 -27 1 -28 -1 -28 -49z"/>
<path d="M236 183 c-9 -25 -14 -49 -11 -51 2 -3 7 3 11 12 8 21 33 21 51 -1
12 -16 13 -15 7 12 -11 47 -23 75 -33 75 -5 0 -16 -21 -25 -47z m30 -10 c-11
-11 -19 6 -11 24 8 17 8 17 12 0 3 -10 2 -21 -1 -24z"/>
<path d="M352 183 l-2 -53 33 1 c29 2 29 2 5 6 -24 4 -27 9 -31 51 l-3 47 -2
-52z"/>
<path d="M520 180 c0 -48 1 -50 28 -49 23 2 24 2 5 6 -14 3 -23 12 -23 23 0
11 9 20 23 23 l22 4 -22 2 c-13 0 -23 7 -23 15 0 8 10 17 23 19 19 4 18 4 -5
6 -27 1 -28 -1 -28 -49z"/>
<path d="M728 223 c6 -2 12 -22 12 -43 0 -21 5 -42 10 -45 6 -4 10 11 10 39 0
34 4 46 18 49 9 3 -1 5 -23 5 -22 0 -34 -2 -27 -5z"/>
<path d="M830 185 c-7 -25 -10 -48 -6 -52 3 -3 6 1 6 10 0 23 36 22 49 0 14
-25 14 0 -1 48 -15 52 -33 49 -48 -6z m34 -7 c-9 -14 -23 2 -17 18 4 12 8 13
14 3 4 -7 5 -17 3 -21z"/>
<path d="M933 223 c13 -3 17 -15 17 -49 0 -28 4 -43 10 -39 6 3 10 24 10 45 0
21 6 41 13 43 6 3 -6 5 -28 5 -22 0 -32 -2 -22 -5z"/>
<path d="M1040 180 c0 -48 1 -50 28 -49 23 2 24 2 5 6 -14 3 -23 12 -23 23 0
11 9 20 23 23 l22 4 -22 2 c-13 0 -23 7 -23 15 0 8 10 17 23 19 19 4 18 4 -5
6 -27 1 -28 -1 -28 -49z"/>
<path d="M148 58 c2 -10 6 -18 7 -18 1 0 5 8 7 18 3 11 0 19 -7 19 -7 0 -10
-8 -7 -19z"/>
<path d="M221 64 c0 -11 3 -14 6 -6 3 7 2 16 -1 19 -3 4 -6 -2 -5 -13z"/>
<path d="M282 60 c0 -14 2 -19 5 -12 2 6 2 18 0 25 -3 6 -5 1 -5 -13z"/>
<path d="M310 62 c0 -15 4 -20 16 -15 9 3 12 9 7 12 -4 3 -11 10 -15 15 -5 5
-8 0 -8 -12z"/>
<path d="M400 75 c0 -5 5 -17 10 -25 5 -8 10 -10 10 -5 0 6 -5 17 -10 25 -5 8
-10 11 -10 5z"/>
<path d="M635 70 c3 -5 1 -10 -4 -10 -6 0 -11 -4 -11 -8 0 -4 9 -8 19 -8 16 0
17 4 10 18 -5 10 -12 18 -15 18 -3 0 -2 -4 1 -10z"/>
<path d="M680 70 c0 -5 5 -10 11 -10 5 0 7 5 4 10 -3 6 -8 10 -11 10 -2 0 -4
-4 -4 -10z"/>
<path d="M707 66 c-4 -10 -5 -21 -2 -24 9 -9 17 6 13 25 -3 17 -4 17 -11 -1z"/>
<path d="M772 60 c0 -14 2 -19 5 -12 2 6 2 18 0 25 -3 6 -5 1 -5 -13z"/>
<path d="M802 60 c0 -14 2 -19 5 -12 2 6 2 18 0 25 -3 6 -5 1 -5 -13z"/>
<path d="M830 61 c0 -25 6 -27 13 -6 4 8 2 17 -3 20 -6 4 -10 -3 -10 -14z"/>
<path d="M880 62 c0 -15 4 -20 16 -15 9 3 12 9 7 12 -4 3 -11 10 -15 15 -5 5
-8 0 -8 -12z"/>
</g>
</svg>
