<?xml version="1.0" standalone="no"?>
<!DOCTYPE svg PUBLIC "-//W3C//DTD SVG 20010904//EN"
 "http://www.w3.org/TR/2001/REC-SVG-20010904/DTD/svg10.dtd">
<svg version="1.0" xmlns="http://www.w3.org/2000/svg"
 width="113.000000pt" height="122.000000pt" viewBox="0 0 113.000000 122.000000"
 preserveAspectRatio="xMidYMid meet">

<g transform="translate(0.000000,122.000000) scale(0.100000,-0.100000)"
fill="#000000" stroke="none">
<path d="M418 1004 l-148 -135 0 -260 0 -259 -35 0 c-19 0 -35 -4 -35 -10 0
-6 122 -10 345 -10 209 0 345 4 345 9 0 6 -17 11 -37 13 l-38 3 -3 216 -2 217
-115 103 -115 104 0 73 c0 39 -3 72 -7 72 -5 0 -74 -61 -155 -136z m132 -284
l0 -370 -62 1 c-58 2 -60 2 -23 9 29 5 10 8 -68 9 -60 0 -106 5 -103 10 3 5
51 14 106 21 55 7 100 15 100 17 0 3 -48 2 -107 -2 -137 -9 -129 7 19 40 114
26 98 32 -27 11 -44 -8 -84 -10 -89 -6 -5 5 25 18 65 30 142 41 155 53 29 25
-137 -30 -131 -13 14 40 58 21 104 40 102 43 -2 2 -50 -11 -106 -28 -157 -48
-144 -29 32 51 53 24 96 45 94 47 -2 1 -49 -15 -105 -38 -56 -22 -106 -40
-111 -40 -27 0 0 20 95 69 57 30 103 56 101 58 -2 2 -47 -17 -101 -42 -54 -25
-103 -44 -109 -42 -5 2 40 34 102 71 62 37 112 70 112 72 0 3 -47 -19 -105
-49 -58 -31 -105 -51 -105 -47 0 5 50 44 110 86 106 74 145 107 78 66 -18 -11
-66 -41 -107 -66 -41 -25 -77 -44 -79 -41 -3 3 -3 6 -1 8 2 2 52 41 112 87 59
45 107 85 107 87 0 2 -50 -30 -111 -72 -60 -43 -112 -75 -114 -73 -3 2 49 51
115 108 66 57 120 106 120 108 0 2 -46 -32 -102 -76 -57 -43 -110 -82 -118
-87 -8 -4 37 45 100 110 109 112 100 108 -48 -23 -34 -30 -65 -53 -67 -50 -5
4 244 238 253 238 1 0 2 -166 2 -370z m161 126 c92 -87 82 -84 -26 8 l-70 60
90 -94 c89 -92 82 -93 -35 -2 -75 59 -78 58 -10 -4 137 -124 140 -129 55 -72
-138 92 -138 86 -1 -21 43 -33 75 -61 71 -61 -4 0 -47 25 -96 55 -49 30 -89
53 -89 51 0 -3 43 -35 95 -72 52 -37 93 -69 91 -71 -2 -3 -43 16 -90 42 -47
25 -86 44 -86 41 0 -2 38 -28 85 -57 98 -60 116 -78 51 -49 -158 69 -164 68
-31 -5 94 -52 86 -57 -21 -15 -42 17 -78 29 -80 27 -3 -2 37 -23 87 -46 50
-23 89 -44 86 -47 -3 -3 -37 4 -77 16 -40 12 -74 19 -76 17 -3 -2 31 -17 76
-33 44 -16 80 -32 80 -37 0 -4 -10 -5 -22 -2 -149 33 -168 32 -58 -6 l85 -29
-60 5 c-33 2 -76 7 -95 11 -70 14 -22 -6 55 -22 115 -25 119 -38 8 -29 -51 3
-93 4 -93 2 0 -3 41 -11 90 -18 50 -6 90 -15 90 -20 0 -4 -39 -6 -87 -4 -59 3
-78 1 -58 -4 28 -8 26 -9 -17 -10 l-47 -1 1 304 1 305 22 -17 c12 -9 59 -53
106 -96z"/>
<path d="M27 263 c-11 -10 -8 -91 3 -98 6 -4 10 5 10 19 0 34 18 33 31 0 5
-15 12 -25 15 -22 2 3 0 17 -5 30 -6 17 -6 29 1 36 8 8 8 15 -2 27 -13 15 -42
20 -53 8z m41 -26 c2 -10 -3 -17 -12 -17 -10 0 -16 9 -16 21 0 24 23 21 28 -4z"/>
<path d="M140 215 c0 -52 1 -55 25 -55 14 0 25 5 25 10 0 6 -9 10 -20 10 -28
0 -26 30 3 31 l22 0 -22 9 c-13 5 -23 14 -23 20 0 6 10 15 23 20 21 8 21 9 -5
9 -27 1 -28 -1 -28 -54z"/>
<path d="M259 243 c-6 -15 -12 -41 -15 -58 -4 -27 -3 -28 5 -7 12 26 36 29 50
5 13 -23 14 -8 1 39 -14 49 -28 56 -41 21z m25 -18 c3 -9 0 -15 -9 -15 -9 0
-12 6 -9 15 4 8 7 15 9 15 2 0 5 -7 9 -15z"/>
<path d="M371 268 c-2 -7 -4 -75 -2 -98 1 -5 12 -10 26 -10 14 0 25 5 25 10 0
6 -9 10 -19 10 -16 0 -21 8 -24 48 -2 26 -5 44 -6 40z"/>
<path d="M530 215 c0 -52 1 -55 25 -55 14 0 25 5 25 10 0 6 -8 10 -17 8 -10
-2 -19 4 -21 15 -2 12 3 17 20 18 l23 0 -22 9 c-13 5 -23 14 -23 20 0 6 10 15
23 20 21 8 21 9 -5 9 -27 1 -28 -1 -28 -54z"/>
<path d="M639 254 c-12 -14 -10 -19 15 -39 31 -25 27 -50 -7 -41 -14 3 -17 2
-9 -6 15 -15 52 0 52 22 0 11 -9 24 -20 30 -25 13 -26 37 -2 43 14 4 14 5 1 6
-9 0 -23 -6 -30 -15z"/>
<path d="M743 258 c9 -8 18 -32 20 -58 l4 -45 1 47 c1 33 7 50 20 57 14 8 9
10 -22 11 -34 0 -37 -2 -23 -12z"/>
<path d="M845 219 c-9 -28 -14 -53 -11 -57 4 -3 9 4 13 16 7 28 29 28 43 1 7
-11 14 -18 17 -16 7 8 -27 107 -37 107 -5 0 -16 -23 -25 -51z m35 6 c0 -8 -4
-15 -10 -15 -5 0 -10 7 -10 15 0 8 5 15 10 15 6 0 10 -7 10 -15z"/>
<path d="M953 259 c14 -8 18 -21 16 -49 -2 -22 0 -42 4 -46 4 -4 7 16 7 44 0
40 4 52 18 55 9 3 -1 5 -23 6 -33 0 -37 -2 -22 -10z"/>
<path d="M1054 256 c-3 -8 -4 -31 -2 -52 3 -35 6 -39 32 -42 19 -2 26 0 21 8
-4 6 -13 9 -21 6 -9 -3 -14 1 -14 14 0 10 8 21 18 23 16 4 16 5 0 6 -27 2 -23
39 5 44 19 4 18 4 -6 6 -15 0 -30 -5 -33 -13z"/>
<path d="M220 116 c0 -2 8 -10 18 -17 15 -13 16 -12 3 4 -13 16 -21 21 -21 13z"/>
<path d="M331 93 c2 -24 2 -25 6 -5 3 13 9 19 15 16 7 -4 8 -2 4 4 -13 21 -26
13 -25 -15z"/>
<path d="M416 111 c-3 -5 2 -15 12 -22 15 -12 16 -12 5 2 -7 9 -10 19 -6 22 3
4 4 7 0 7 -3 0 -8 -4 -11 -9z"/>
<path d="M850 93 c0 -30 9 -27 15 6 2 11 0 21 -6 21 -5 0 -9 -12 -9 -27z"/>
<path d="M950 93 c0 -30 9 -27 15 6 2 11 0 21 -6 21 -5 0 -9 -12 -9 -27z"/>
<path d="M157 89 c4 -13 8 -18 11 -10 2 7 -1 18 -6 23 -8 8 -9 4 -5 -13z"/>
<path d="M272 90 c0 -14 2 -19 5 -12 2 6 2 18 0 25 -3 6 -5 1 -5 -13z"/>
<path d="M460 90 c0 -11 4 -20 9 -20 5 0 7 9 4 20 -3 11 -7 20 -9 20 -2 0 -4
-9 -4 -20z"/>
<path d="M537 91 c-4 -17 -3 -21 5 -13 5 5 8 16 6 23 -3 8 -7 3 -11 -10z"/>
<path d="M641 92 c-7 -14 -6 -18 10 -18 10 0 19 4 19 8 0 4 -5 8 -11 8 -5 0
-7 5 -4 10 3 6 4 10 1 10 -3 0 -10 -8 -15 -18z"/>
<path d="M693 88 c-2 -18 0 -20 7 -8 12 18 13 30 2 30 -4 0 -9 -10 -9 -22z"/>
<path d="M812 90 c0 -14 2 -19 5 -12 2 6 2 18 0 25 -3 6 -5 1 -5 -13z"/>
<path d="M200 91 c0 -6 4 -13 10 -16 6 -3 7 1 4 9 -7 18 -14 21 -14 7z"/>
<path d="M570 91 c0 -6 4 -13 10 -16 6 -3 7 1 4 9 -7 18 -14 21 -14 7z"/>
<path d="M900 91 c0 -5 7 -12 16 -15 14 -5 15 -4 4 9 -14 17 -20 19 -20 6z"/>
</g>
</svg>
