<?xml version="1.0" standalone="no"?>
<!DOCTYPE svg PUBLIC "-//W3C//DTD SVG 20010904//EN"
 "http://www.w3.org/TR/2001/REC-SVG-20010904/DTD/svg10.dtd">
<svg version="1.0" xmlns="http://www.w3.org/2000/svg"
 width="113.000000pt" height="122.000000pt" viewBox="0 0 113.000000 122.000000"
 preserveAspectRatio="xMidYMid meet">

<g transform="translate(0.000000,122.000000) scale(0.100000,-0.100000)"
fill="#000000" stroke="none">
<path d="M862 1124 c-4 -100 -9 -111 -58 -119 l-44 -6 -2 -211 c-2 -158 -6
-212 -15 -216 -10 -3 -13 58 -13 282 l0 286 -170 0 -170 0 0 -95 c0 -52 -2
-95 -5 -95 -3 0 -29 19 -58 41 l-52 42 -3 -142 c-2 -131 -4 -141 -22 -141 -13
0 -43 -35 -94 -109 l-76 -109 0 -126 0 -126 -29 0 c-17 0 -33 -4 -36 -10 -4
-6 13 -10 44 -10 l51 0 0 138 0 138 65 95 c36 52 71 94 78 94 9 0 13 -56 15
-223 l2 -222 -25 0 c-14 0 -25 -4 -25 -10 0 -5 16 -10 35 -10 l35 0 0 236 c0
219 1 235 17 232 16 -3 18 -24 21 -236 l2 -232 65 0 c37 0 65 4 65 10 0 6 -11
10 -25 10 l-25 0 0 305 c0 168 2 305 4 305 2 0 20 -13 41 -30 21 -16 46 -30
56 -30 18 0 19 -14 19 -285 l0 -285 50 0 c28 0 50 5 50 10 0 6 -18 10 -40 10
l-40 0 0 285 c0 284 0 285 -21 285 -12 0 -43 16 -70 36 l-49 36 0 99 0 99 150
0 150 0 0 -288 0 -288 -30 -17 -30 -18 0 -125 c0 -76 4 -124 10 -124 6 0 10
44 10 113 0 101 2 116 20 132 20 18 20 17 20 -113 l0 -132 90 0 c53 0 90 4 90
10 0 6 -25 10 -55 10 l-55 0 0 144 0 145 29 20 c16 12 32 21 37 21 4 0 29 -14
56 -31 l48 -31 0 -144 0 -144 31 0 c17 0 28 4 24 10 -3 6 -13 10 -21 10 -11 0
-14 23 -14 126 l0 126 23 -14 c20 -14 22 -24 25 -137 l3 -121 54 0 c30 0 55 5
55 10 0 6 -20 10 -45 10 l-45 0 0 118 0 117 -35 23 -35 22 0 215 0 214 -42 12
c-24 7 -45 14 -48 17 -3 2 -8 38 -11 80 -5 63 -6 68 -7 26z m86 -348 c1 -108
0 -196 -3 -196 -4 0 -26 14 -51 31 l-45 30 -34 -21 -35 -22 0 190 0 190 48 9
c32 6 58 5 82 -3 l35 -12 3 -196z m-558 -178 c0 -311 0 -318 -20 -318 -19 0
-20 7 -20 235 l0 235 -30 0 -30 0 0 121 0 120 50 -38 49 -38 1 -317z m370
-183 c0 -113 -2 -135 -15 -135 -13 0 -15 20 -15 123 0 110 7 147 27 147 2 0 3
-61 3 -135z"/>
<path d="M617 1074 c-13 -13 5 -24 39 -24 24 0 34 4 32 13 -5 13 -60 22 -71
11z"/>
<path d="M615 1010 c-4 -6 10 -10 34 -10 23 0 41 5 41 10 0 6 -15 10 -34 10
-19 0 -38 -4 -41 -10z"/>
<path d="M615 950 c-4 -6 10 -10 34 -10 23 0 41 5 41 10 0 6 -15 10 -34 10
-19 0 -38 -4 -41 -10z"/>
<path d="M610 890 c0 -5 18 -10 40 -10 22 0 40 5 40 10 0 6 -18 10 -40 10 -22
0 -40 -4 -40 -10z"/>
<path d="M615 830 c3 -5 22 -10 41 -10 19 0 34 5 34 10 0 6 -18 10 -41 10 -24
0 -38 -4 -34 -10z"/>
<path d="M617 784 c-13 -13 5 -24 39 -24 24 0 34 5 34 15 0 10 -10 15 -33 15
-19 0 -37 -3 -40 -6z"/>
<path d="M615 720 c-4 -6 10 -10 34 -10 23 0 41 5 41 10 0 6 -15 10 -34 10
-19 0 -38 -4 -41 -10z"/>
<path d="M657 208 c-25 -13 -21 -37 8 -50 30 -14 28 -30 -6 -40 -22 -6 -21 -7
6 -5 41 3 47 38 9 56 -28 13 -24 26 11 33 16 3 17 5 4 10 -8 3 -23 2 -32 -4z"/>
<path d="M37 203 c-11 -10 -8 -81 3 -88 6 -3 10 3 10 14 0 27 16 27 30 0 7
-11 14 -18 17 -16 2 3 0 14 -5 24 -6 11 -7 25 -2 33 12 20 1 40 -24 40 -13 0
-26 -3 -29 -7z m41 -20 c-5 -25 -28 -28 -28 -4 0 12 6 21 16 21 9 0 14 -7 12
-17z"/>
<path d="M150 160 c0 -48 1 -50 28 -49 23 2 24 2 5 6 -14 3 -23 12 -23 23 0
11 9 20 23 23 l22 4 -22 2 c-13 0 -23 7 -23 15 0 8 10 17 23 19 19 4 18 4 -5
6 -27 1 -28 -1 -28 -49z"/>
<path d="M264 175 c-7 -19 -14 -42 -14 -52 1 -17 1 -17 11 0 12 21 49 23 49 2
0 -8 4 -15 9 -15 5 0 2 23 -7 50 -9 28 -20 50 -24 50 -5 0 -16 -16 -24 -35z
m33 -22 c-11 -10 -26 8 -20 23 5 15 7 14 15 -1 6 -9 7 -19 5 -22z"/>
<path d="M381 208 c-1 -5 -3 -27 -3 -50 -1 -41 0 -43 28 -45 19 -1 22 0 7 4
-18 3 -23 12 -26 51 -2 26 -5 44 -6 40z"/>
<path d="M540 160 l0 -50 33 1 c30 2 30 2 5 6 -35 5 -39 40 -5 46 l22 4 -22 2
c-13 0 -23 7 -23 15 0 8 10 17 23 19 19 4 18 4 -5 6 -27 1 -28 -1 -28 -49z"/>
<path d="M752 203 c12 -3 18 -18 21 -51 l3 -47 2 47 c2 35 6 48 20 51 9 3 -1
5 -23 5 -22 0 -32 -2 -23 -5z"/>
<path d="M856 163 c-9 -25 -14 -49 -11 -51 2 -3 7 3 11 12 8 21 40 21 48 0 4
-9 9 -15 11 -12 7 7 -26 98 -35 98 -4 0 -15 -21 -24 -47z m34 1 c0 -8 -4 -14
-10 -14 -5 0 -10 9 -10 21 0 11 5 17 10 14 6 -3 10 -13 10 -21z"/>
<path d="M958 203 c7 -3 12 -23 12 -49 0 -24 5 -44 10 -44 6 0 10 20 10 44 0
34 4 46 18 49 9 3 -1 5 -23 5 -22 0 -34 -2 -27 -5z"/>
<path d="M1060 160 l0 -50 33 1 c23 1 26 3 10 6 -14 3 -23 12 -23 23 0 11 9
20 23 23 l22 4 -22 2 c-13 0 -23 7 -23 15 0 8 10 17 23 19 16 3 13 5 -10 6
l-33 1 0 -50z"/>
<path d="M168 38 c2 -10 6 -18 7 -18 1 0 5 8 7 18 3 11 0 19 -7 19 -7 0 -10
-8 -7 -19z"/>
<path d="M212 40 c0 -14 2 -19 5 -12 2 6 2 18 0 25 -3 6 -5 1 -5 -13z"/>
<path d="M341 44 c-1 -27 25 -27 27 0 1 15 -1 17 -7 7 -7 -11 -9 -11 -14 0 -3
9 -6 6 -6 -7z"/>
<path d="M472 40 c0 -14 2 -19 5 -12 2 6 2 18 0 25 -3 6 -5 1 -5 -13z"/>
<path d="M514 49 c-3 -6 -2 -15 3 -20 5 -5 9 -1 9 11 0 23 -2 24 -12 9z"/>
<path d="M648 42 c-4 -12 1 -18 13 -18 12 0 15 4 9 12 -6 6 -7 14 -3 17 3 4 2
7 -4 7 -6 0 -13 -8 -15 -18z"/>
<path d="M700 38 c0 -19 2 -20 10 -8 13 19 13 30 0 30 -5 0 -10 -10 -10 -22z"/>
<path d="M727 45 c-4 -8 -2 -17 3 -20 6 -4 10 3 10 14 0 25 -6 27 -13 6z"/>
<path d="M821 44 c0 -11 3 -14 6 -6 3 7 2 16 -1 19 -3 4 -6 -2 -5 -13z"/>
<path d="M862 40 c0 -14 2 -19 5 -12 2 6 2 18 0 25 -3 6 -5 1 -5 -13z"/>
<path d="M962 40 c0 -14 2 -19 5 -12 2 6 2 18 0 25 -3 6 -5 1 -5 -13z"/>
<path d="M581 34 c0 -11 3 -14 6 -6 3 7 2 16 -1 19 -3 4 -6 -2 -5 -13z"/>
<path d="M910 36 c0 -2 7 -7 16 -10 8 -3 12 -2 9 4 -6 10 -25 14 -25 6z"/>
</g>
</svg>
